<svg width="212" height="212" viewBox="0 0 212 212" fill="none" xmlns="http://www.w3.org/2000/svg">
<path d="M211.929 128.747L211.398 107.763L210.926 108.475C210.948 107.805 210.987 107.132 210.987 106.461C210.964 94.5694 207.575 82.6746 203.717 71.9479C200.03 61.7748 196.794 53.0617 192.272 45.1606C187.766 37.2694 181.853 30.304 173.46 24.2935C164.63 17.9625 153.752 14.3469 142.138 12.1751C130.512 10.0162 118.079 9.33962 106 9.3363C93.9234 9.33962 81.4912 10.0162 69.8681 12.1751C58.2511 14.3469 47.3725 17.9625 38.5393 24.2902C30.1504 30.304 24.2367 37.2698 19.7342 45.1606C15.2127 53.0613 11.9759 61.7748 8.28912 71.9446C4.42757 82.6775 1.04178 94.569 1.01611 106.461C1.01611 107.193 1.05834 107.927 1.08402 108.659L0.604945 107.944L0.0708047 128.743C0.0256719 130.443 0 132.135 0 133.818C0.0033125 140.68 0.414063 147.38 1.83513 153.815C3.24956 160.236 5.72566 166.432 9.84931 171.898C14.6363 178.262 20.3301 183.476 26.8325 187.596C36.5944 193.788 48.0495 197.521 61.1579 199.731C74.2795 201.942 89.1203 202.66 106 202.664C127.942 202.654 147.2 200.935 163.455 196.3C171.576 193.98 178.955 190.911 185.478 186.898C191.99 182.891 197.638 177.913 202.163 171.899C206.283 166.432 208.757 160.237 210.167 153.818C211.585 147.391 211.996 140.693 212 133.832C212 132.145 211.974 130.449 211.929 128.747ZM3.5862 135.912C3.58951 135.919 3.59282 135.922 3.59903 135.926L3.61187 135.945L3.5862 135.912ZM196.305 116.981C195.328 120.211 193.848 123.143 191.68 125.865C187.841 130.672 183.43 134.482 178.218 137.608C170.411 142.286 160.698 145.403 148.699 147.312C136.714 149.222 122.504 149.911 106 149.908C83.9901 149.918 66.0749 148.671 52.0535 144.988C45.0363 143.15 38.9997 140.728 33.7883 137.608C28.5774 134.481 24.1655 130.672 20.3267 125.865C18.155 123.143 16.6789 120.211 15.7017 116.981C14.7274 113.757 14.274 110.229 14.274 106.461C14.2516 97.1722 17.1128 86.4906 20.7574 76.4533C24.4053 66.3486 27.4668 58.3021 31.2348 51.7603C35.0185 45.2061 39.3815 40.0465 46.2856 35.0521C52.7528 30.3752 61.8477 27.1352 72.2895 25.2094C82.7251 23.2641 94.4356 22.5909 106 22.5942C117.568 22.5909 129.282 23.2641 139.714 25.2094C150.159 27.1352 159.251 30.3752 165.718 35.0521C172.622 40.0498 176.988 45.209 180.772 51.7603C184.539 58.3021 187.601 66.3486 191.249 76.4533C194.893 86.4873 197.751 97.1718 197.729 106.461C197.729 110.229 197.279 113.757 196.305 116.981Z" fill="black"/>
<path d="M87.1428 110.051L85.5892 122.496H126.417L124.857 110.051H87.1428Z" fill="black"/>
<path d="M122.1 38.8751H89.9004L88.6446 48.9315H123.355L122.1 38.8751Z" fill="black"/>
<path d="M88.25 69.1353C89.5766 67.4977 91.2602 66.2124 93.1309 65.2091C96.8857 63.2154 101.411 62.29 106 62.2801C109.45 62.283 112.856 62.8142 115.924 63.911C118.986 65.0116 121.763 66.6786 123.757 69.1353C124.515 70.0677 125.123 71.1356 125.583 72.2879H164.929L155.769 44.4323C154.597 40.8751 151.276 38.4702 147.528 38.4702H128.347L129.997 51.6697L130.438 55.1847H81.5624L83.6535 38.4702H64.4724C60.731 38.4702 57.4102 40.8751 56.2384 44.4323L47.0785 72.2879H86.4244C86.8836 71.1356 87.4922 70.0677 88.25 69.1353Z" fill="black"/>
<path d="M95.3768 80.7484C97.9146 82.1562 101.792 83.0953 106 83.0854C109.159 83.0887 112.13 82.574 114.487 81.7065C116.837 80.8619 118.526 79.6544 119.349 78.5377H92.6581C93.2084 79.276 94.121 80.0594 95.3768 80.7484Z" fill="black"/>
<path d="M106 68.5335C103.21 68.5302 100.465 68.9799 98.1867 69.7956C96.3739 70.4399 94.9048 71.3169 93.8622 72.2883H118.151C117.549 71.7251 116.804 71.1943 115.924 70.7214C113.367 69.3422 109.722 68.5236 106 68.5335Z" fill="black"/>
<path d="M166.98 78.5381H126.132C125.809 79.888 125.2 81.1467 124.397 82.2249C123.161 83.8886 121.517 85.1929 119.633 86.2256C115.865 88.281 111.107 89.3261 106 89.3356C102.174 89.3327 98.5423 88.7336 95.3702 87.5784C92.2175 86.4165 89.4661 84.7139 87.6086 82.2245C86.7995 81.1467 86.1975 79.8876 85.8737 78.5377H45.0256L34.2927 111.183C33.4248 113.828 33.872 116.725 35.503 118.974C37.1344 121.227 39.7496 122.561 42.5267 122.561H79.2835L81.6266 103.801H130.378L132.722 122.561H169.479C172.262 122.561 174.871 121.227 176.496 118.974C178.127 116.725 178.58 113.828 177.712 111.183L166.98 78.5381Z" fill="black"/>
</svg>
